<?xml version="1.0" encoding="UTF-8"?>
<svg id="Ebene_1" xmlns="http://www.w3.org/2000/svg" version="1.1" viewBox="0 0 42 42">
  <!-- Generator: Adobe Illustrator 29.0.1, SVG Export Plug-In . SVG Version: 2.1.0 Build 192)  -->
  <defs>
    <style>
      .st0 {
        fill: #d7d7d7;
        fill-rule: evenodd;
      }

      .st1 {
        fill: #11609c;
      }
    </style>
  </defs>
  <circle class="st1" cx="21.2" cy="21" r="20"/>
  <path class="st0" d="M25.6255,32.4425c-.3841.0029-.7533-.1484-1.0248-.4201l-9.0653-8.2712-1.991,1.5099-1.9599,1.4858c-.1784.1357-.3987.2045-.6226.1945-.2234-.0098-.4364-.0976-.6019-.248l-1.2659-1.1509c-.3914-.3566-.4196-.9629-.063-1.3543.02-.022.041-.043.063-.063l3.425-3.1246-1.6043-1.4656-1.8201-1.659c-.3914-.3561-.42-.9621-.0638-1.3534.0203-.0223.0416-.0436.0638-.0638l1.2659-1.1509c.3415-.3121.8572-.3356,1.2257-.0558l3.9492,2.9974,9.0642-8.2718c.2799-.2804.6634-.4323,1.0594-.4195.202.0052.4022.0524.5864.141l4.7392,2.2793c.4979.2399.8144.7438.8142,1.2964v.057-.0259,15.3882-.0259.0547c.0008.5536-.316,1.0586-.8148,1.2987l-4.7387,2.2793c-.1934.093-.4052.1413-.6197.1416ZM26.0375,15.7855l-6.8752,5.2145,6.8775,5.2163-.0023-10.4308Z"/>
</svg>