<?xml version="1.0" encoding="utf-8"?>
<!-- Generator: Adobe Illustrator 26.5.3, SVG Export Plug-In . SVG Version: 6.00 Build 0)  -->
<svg version="1.1" id="Ebene_1" xmlns="http://www.w3.org/2000/svg" xmlns:xlink="http://www.w3.org/1999/xlink" x="0px" y="0px"
	 viewBox="0 0 42 42" style="enable-background:new 0 0 42 42;" xml:space="preserve">
<style type="text/css">
	.st0{opacity:0.4;fill-rule:evenodd;clip-rule:evenodd;enable-background:new    ;}
</style>
<path class="st0" d="M30.4,40.6c-0.7,0-1.3-0.3-1.8-0.7L13.1,25.7l-3.4,2.6l-3.4,2.5c-0.3,0.2-0.7,0.3-1.1,0.3c-0.4,0-0.7-0.2-1-0.4
	l-2.2-2c-0.7-0.6-0.7-1.6-0.1-2.3c0,0,0.1-0.1,0.1-0.1L8,21l-2.7-2.5l-3.1-2.8C1.4,15.1,1.4,14,2,13.3c0,0,0.1-0.1,0.1-0.1l2.2-2
	c0.6-0.5,1.5-0.6,2.1-0.1l6.8,5.1L28.6,2.2c0.5-0.5,1.1-0.7,1.8-0.7c0.3,0,0.7,0.1,1,0.2l8.1,3.9c0.9,0.4,1.4,1.3,1.4,2.2v0.1v0
	v26.3v0v0.1c0,0.9-0.5,1.8-1.4,2.2l-8.1,3.9C31.1,40.5,30.7,40.6,30.4,40.6z M31.1,12.1L19.3,21l11.8,8.9L31.1,12.1z"/>
</svg>
